<svg width="550" height="929" viewBox="0 0 550 929" fill="none" xmlns="http://www.w3.org/2000/svg">
<path d="M107 -2L215.253 185.5H-1.25317L107 -2Z" fill="#BEE3DB"/>
<path d="M317 373L208.747 185.5L425.253 185.5L317 373Z" fill="#555B6E"/>
<path d="M209 561L100.747 373.5H317.253L209 561Z" fill="#555B6E"/>
<path d="M105 373L-3.25317 185.5L213.253 185.5L105 373Z" fill="#89B0AE"/>
<path d="M107 745L-1.25317 557.5H215.253L107 745Z" fill="#BEE3DB"/>
<path d="M425 186L316.747 -1.5L533.253 -1.5L425 186Z" fill="#BEE3DB"/>
<path d="M318 -2L426.253 185.5H209.747L318 -2Z" fill="#89B0AE"/>
<path d="M212 187L103.747 -0.5L320.253 -0.5L212 187Z" fill="#555B6E"/>
<path d="M0 187L-108.253 -0.5L108.253 -0.5L0 187Z" fill="#89B0AE"/>
<path d="M209 185L317.253 372.5H100.747L209 185Z" fill="#BEE3DB"/>
<path d="M103 370L211.253 557.5H-5.25317L103 370Z" fill="#89B0AE"/>
<path d="M0 929L-108.253 741.5H108.253L0 929Z" fill="#89B0AE"/>
<path d="M-1 188L107.253 375.5H-109.253L-1 188Z" fill="#555B6E"/>
<path d="M0 555L108.253 742.5H-108.253L0 555Z" fill="#555B6E"/>
<path d="M-4 562L-112.253 374.5H104.253L-4 562Z" fill="#BEE3DB"/>
</svg>