<svg width="545" height="901" viewBox="0 0 545 901" fill="none" xmlns="http://www.w3.org/2000/svg">
<path d="M443 931L334.747 743.5H551.253L443 931Z" fill="#BEE3DB"/>
<path d="M233 556L341.253 743.5H124.747L233 556Z" fill="#555B6E"/>
<path d="M341 368L449.253 555.5H232.747L341 368Z" fill="#555B6E"/>
<path d="M445 556L553.253 743.5H336.747L445 556Z" fill="#89B0AE"/>
<path d="M446 184L554.253 371.5L337.747 371.5L446 184Z" fill="#BEE3DB"/>
<path d="M125 743L233.253 930.5H16.7468L125 743Z" fill="#BEE3DB"/>
<path d="M232 931L123.747 743.5H340.253L232 931Z" fill="#89B0AE"/>
<path d="M338 742L446.253 929.5H229.747L338 742Z" fill="#555B6E"/>
<path d="M550 742L658.253 929.5H441.747L550 742Z" fill="#89B0AE"/>
<path d="M341 744L232.747 556.5H449.253L341 744Z" fill="#BEE3DB"/>
<path d="M447 559L338.747 371.5H555.253L447 559Z" fill="#89B0AE"/>
<path d="M551 0L659.253 187.5L442.747 187.5L551 0Z" fill="#89B0AE"/>
<path d="M551 741L442.747 553.5H659.253L551 741Z" fill="#555B6E"/>
<path d="M552 374L443.747 186.5L660.253 186.5L552 374Z" fill="#555B6E"/>
<path d="M554 367L662.253 554.5H445.747L554 367Z" fill="#BEE3DB"/>
</svg>
